<svg id="Layer_1" enable-background="new 0 0 480 480" height="512" viewBox="0 0 480 480" width="512" xmlns="http://www.w3.org/2000/svg"><path d="m288.15 65.495h-40.3c-6.356 0-10.166-7.05-6.703-12.38 12.659-19.485 41.054-19.476 53.708 0 3.462 5.33-.349 12.38-6.705 12.38zm28.85 139c0 13.255 10.745 24 24 24h130.166c4.852 0 8.565-4.281 7.933-9.092-2.019-15.357-7.441-30.076-15.988-43.178l-31-47.54c-19.27-29.55-51.84-47.19-87.11-47.19h-20c-4.418 0-8 3.582-8 8v115zm155 40c4.418 0 8 3.582 8 8v99c0 17.019-10.93 35.122-33.648 39.167-4.878.869-9.312-2.921-9.357-7.875-.367-40.316-33.281-73.292-73.995-73.292-40.888 0-74.027 33.311-73.999 74.017.003 4.411-3.58 7.983-7.991 7.983h-82.02c-4.411 0-7.994-3.573-7.991-7.984.023-40.644-33.04-74.016-73.998-74.016-40.642 0-73.629 32.911-73.996 73.284-.045 4.94-4.458 8.75-9.32 7.875-21.931-3.943-33.685-21.181-33.685-39.159v-230c0-22.091 17.909-40 40-40h253c4.418 0 8 3.582 8 8v115c0 22.091 17.909 40 40 40zm-245-49.901c0-4.418-3.582-8-8-8h-24.599c-4.418 0-8-3.582-8-8v-24.599c0-4.418-3.582-8-8-8h-36.803c-4.418 0-8 3.582-8 8v24.599c0 4.418-3.582 8-8 8h-24.598c-4.418 0-8 3.582-8 8v36.803c0 4.418 3.582 8 8 8h24.599c4.418 0 8 3.582 8 8v24.599c0 4.418 3.582 8 8 8h36.803c4.418 0 8-3.582 8-8v-24.599c0-4.418 3.582-8 8-8h24.598c4.418 0 8-3.582 8-8zm-110 130.901c-31.98 0-58 26.02-58 58s26.02 58 58 58 58-26.02 58-58-26.02-58-58-58zm246 0c-31.98 0-58 26.02-58 58s26.02 58 58 58 58-26.02 58-58-26.02-58-58-58z"/></svg>