<?xml version='1.0' encoding='iso-8859-1'?>
<svg version="1.1" xmlns="http://www.w3.org/2000/svg" viewBox="0 0 470 470" xmlns:xlink="http://www.w3.org/1999/xlink" enable-background="new 0 0 470 470">
  <g>
    <path d="M430.809,30h-40.491c-4.143,0-7.5,3.358-7.5,7.5s3.357,7.5,7.5,7.5h13.952c-2.827,4.673-4.457,10.148-4.457,15.997v354.509   c0,4.142,3.357,7.5,7.5,7.5s7.5-3.358,7.5-7.5V60.997c0-8.821,7.176-15.997,15.996-15.997c8.821,0,15.998,7.176,15.998,15.997   v354.509c0,21.777-17.717,39.494-39.494,39.494s-39.494-17.717-39.494-39.494V7.5c0-4.142-3.357-7.5-7.5-7.5H15.693   c-4.143,0-7.5,3.358-7.5,7.5v408.006C8.193,445.554,32.64,470,62.688,470h344.625c30.048,0,54.494-24.446,54.494-54.494V60.997   C461.807,43.905,447.901,30,430.809,30z M62.688,455c-21.777,0-39.494-17.717-39.494-39.494V15h329.625v400.506   c0,15.526,6.529,29.559,16.983,39.494H62.688z"/>
    <path d="m320.318,40h-264.625c-4.143,0-7.5,3.358-7.5,7.5v75c0,4.142 3.357,7.5 7.5,7.5h264.625c4.143,0 7.5-3.358 7.5-7.5v-75c0-4.142-3.357-7.5-7.5-7.5zm-7.5,75h-249.625v-60h249.625v60z"/>
    <path d="m320.318,145h-264.625c-4.143,0-7.5,3.358-7.5,7.5s3.357,7.5 7.5,7.5h264.625c4.143,0 7.5-3.358 7.5-7.5s-3.357-7.5-7.5-7.5z"/>
    <path d="m320.318,205h-117.312c-4.143,0-7.5,3.358-7.5,7.5s3.357,7.5 7.5,7.5h117.313c4.143,0 7.5-3.358 7.5-7.5s-3.358-7.5-7.501-7.5z"/>
    <path d="m173.006,205h-117.313c-4.143,0-7.5,3.358-7.5,7.5s3.357,7.5 7.5,7.5h117.313c4.143,0 7.5-3.358 7.5-7.5s-3.358-7.5-7.5-7.5z"/>
    <path d="m320.318,235h-117.312c-4.143,0-7.5,3.358-7.5,7.5s3.357,7.5 7.5,7.5h117.313c4.143,0 7.5-3.358 7.5-7.5s-3.358-7.5-7.501-7.5z"/>
    <path d="m173.006,235h-117.313c-4.143,0-7.5,3.358-7.5,7.5s3.357,7.5 7.5,7.5h117.313c4.143,0 7.5-3.358 7.5-7.5s-3.358-7.5-7.5-7.5z"/>
    <path d="m320.318,265h-117.312c-4.143,0-7.5,3.358-7.5,7.5s3.357,7.5 7.5,7.5h117.313c4.143,0 7.5-3.358 7.5-7.5s-3.358-7.5-7.501-7.5z"/>
    <path d="m320.318,295h-117.312c-4.143,0-7.5,3.358-7.5,7.5s3.357,7.5 7.5,7.5h117.313c4.143,0 7.5-3.358 7.5-7.5s-3.358-7.5-7.501-7.5z"/>
    <path d="m203.006,340h77.313c4.143,0 7.5-3.358 7.5-7.5s-3.357-7.5-7.5-7.5h-77.313c-4.143,0-7.5,3.358-7.5,7.5s3.357,7.5 7.5,7.5z"/>
    <path d="m280.318,415h-77.313c-4.143,0-7.5,3.358-7.5,7.5s3.357,7.5 7.5,7.5h77.313c4.143,0 7.5-3.358 7.5-7.5s-3.357-7.5-7.5-7.5z"/>
    <path d="m320.318,385h-117.312c-4.143,0-7.5,3.358-7.5,7.5s3.357,7.5 7.5,7.5h117.313c4.143,0 7.5-3.358 7.5-7.5s-3.358-7.5-7.501-7.5z"/>
    <path d="m173.006,265h-117.313c-4.143,0-7.5,3.358-7.5,7.5v150c0,4.142 3.357,7.5 7.5,7.5h117.313c4.143,0 7.5-3.358 7.5-7.5v-150c0-4.142-3.358-7.5-7.5-7.5zm-7.5,150h-102.313v-135h102.313v135z"/>
  </g>
</svg>
